<svg width="80" height="20" viewBox="0 0 80 20" fill="none" xmlns="http://www.w3.org/2000/svg">
<path d="M0 20V1.15341e-05H5V6.66668H11.6667V1.15341e-05H16.6667V20H11.6667V11.6667H5V20H0ZM25.8333 20V5.00001H20V1.15341e-05H36.6666V5.00001H30.8333V20H25.8333ZM40 20V3.33334C40 2.3889 40.32 1.59668 40.96 0.956677C41.6 0.316677 42.3911 -0.00221069 43.3333 1.15341e-05H58.3333C59.2778 1.15341e-05 60.07 0.320012 60.71 0.960011C61.35 1.60001 61.6689 2.39112 61.6666 3.33334V20H56.6666V5.00001H53.3333V16.6667H48.3333V5.00001H45V20H40ZM66.6666 20V1.15341e-05H71.6666V15H80V20H66.6666Z" fill="#D6D6D6"/>
</svg>
