<svg width="82" height="50" viewBox="0 0 82 50" fill="none" xmlns="http://www.w3.org/2000/svg">
<path d="M40.5352 50C40.2585 50 40.0001 49.9262 39.7601 49.797L37.3054 48.339C36.9361 48.1359 37.1208 48.0621 37.2316 48.0252C37.7298 47.8591 37.8221 47.8221 38.3389 47.5269C38.3943 47.4899 38.4683 47.5084 38.5235 47.5453L40.4062 48.6712C40.48 48.7081 40.5723 48.7081 40.6275 48.6712L47.9919 44.4076C48.0657 44.3707 48.1027 44.2968 48.1027 44.2046V35.696C48.1027 35.6035 48.0657 35.5299 47.9919 35.4929L40.6275 31.2478C40.5537 31.2108 40.4614 31.2108 40.4062 31.2478L33.0418 35.4929C32.968 35.5298 32.931 35.6221 32.931 35.6958V44.2045C32.931 44.2784 32.968 44.3705 33.0418 44.4076L35.0536 45.5703C36.1426 46.124 36.8255 45.478 36.8255 44.8321V36.4341C36.8255 36.3234 36.9178 36.2126 37.047 36.2126H37.9882C38.099 36.2126 38.2097 36.3049 38.2097 36.4341V44.8321C38.2097 46.2901 37.416 47.1392 36.0318 47.1392C35.6073 47.1392 35.2751 47.1392 34.3337 46.6777L32.3958 45.5703C31.9159 45.2936 31.6206 44.7767 31.6206 44.223V35.7144C31.6206 35.1607 31.9159 34.6438 32.3958 34.367L39.7601 30.1034C40.2216 29.845 40.8492 29.845 41.3105 30.1034L48.6748 34.367C49.1547 34.6438 49.4501 35.1607 49.4501 35.7144V44.223C49.4501 44.7767 49.1547 45.2936 48.6748 45.5703L41.3105 49.8339C41.0705 49.9447 40.7936 50 40.5352 50ZM42.8055 44.1492C39.5756 44.1492 38.9111 42.6727 38.9111 41.4176C38.9111 41.3068 39.0034 41.1961 39.1326 41.1961H40.0924C40.203 41.1961 40.2954 41.2699 40.2954 41.3807C40.4431 42.3589 40.8675 42.8387 42.824 42.8387C44.3743 42.8387 45.039 42.488 45.039 41.6575C45.039 41.1776 44.8542 40.827 42.4364 40.587C40.4245 40.3839 39.1695 39.941 39.1695 38.3353C39.1695 36.8402 40.4247 35.9542 42.5287 35.9542C44.8911 35.9542 46.054 36.7664 46.2017 38.5381C46.2017 38.5937 46.1832 38.6489 46.1463 38.7044C46.1093 38.7412 46.054 38.7781 45.9986 38.7781H45.0388C44.9465 38.7781 44.8542 38.7044 44.8358 38.6121C44.6143 37.597 44.0421 37.2647 42.5287 37.2647C40.8307 37.2647 40.6275 37.8554 40.6275 38.2983C40.6275 38.8336 40.8675 38.9996 43.1562 39.2949C45.4264 39.5904 46.497 40.0148 46.497 41.602C46.4785 43.2263 45.1496 44.1492 42.8055 44.1492Z" fill="#D6D6D6"/>
<path d="M17.6855 16.7222C17.6855 16.39 17.5009 16.076 17.2057 15.9099L9.3799 11.4065C9.25055 11.3326 9.10299 11.2957 8.95543 11.2772H8.88149C8.73393 11.2772 8.58621 11.3326 8.45702 11.4065L0.631255 15.9099C0.335816 16.076 0.151367 16.3898 0.151367 16.7222L0.169892 28.8299C0.169892 28.9959 0.262196 29.162 0.409756 29.236C0.557475 29.3283 0.741924 29.3283 0.871278 29.236L5.52243 26.5781C5.81771 26.4121 6.00232 26.0982 6.00232 25.7661V20.0997C6.00232 19.7676 6.18677 19.4538 6.48221 19.2877L8.45702 18.1433C8.60473 18.051 8.77082 18.0139 8.9369 18.0139C9.10299 18.0139 9.26907 18.051 9.39842 18.1433L11.3732 19.2877C11.6687 19.4538 11.8531 19.7674 11.8531 20.0997V25.7661C11.8531 26.0982 12.0377 26.4121 12.333 26.5781L16.9842 29.236C17.056 29.2812 17.1392 29.3052 17.2241 29.3052C17.309 29.3052 17.3922 29.2812 17.464 29.236C17.6118 29.162 17.7041 28.9959 17.7041 28.8299L17.6855 16.7222ZM55.3009 0.0554545C55.1533 -0.0184849 54.9687 -0.0184849 54.8394 0.0554545C54.6918 0.147759 54.5995 0.295318 54.5995 0.461403V12.4586C54.5995 12.5693 54.5443 12.6799 54.4334 12.7539C54.3228 12.8091 54.2119 12.8091 54.1013 12.7539L52.1448 11.628C52.0014 11.5463 51.8392 11.5034 51.6741 11.5034C51.5091 11.5034 51.3468 11.5463 51.2034 11.628L43.3777 16.15C43.0824 16.3161 42.8978 16.6299 42.8978 16.962V25.9874C42.8978 26.3196 43.0824 26.6336 43.3777 26.7996L51.2034 31.3216C51.3468 31.4033 51.5091 31.4462 51.6741 31.4462C51.8392 31.4462 52.0014 31.4033 52.1448 31.3216L59.9706 26.7996C60.2659 26.6336 60.4505 26.3197 60.4505 25.9874V3.48845C60.4505 3.13775 60.2659 2.82411 59.9706 2.65787L55.3009 0.0554545ZM54.5812 23.016C54.5812 23.1083 54.5443 23.182 54.4703 23.2189L51.7941 24.7693C51.7568 24.7875 51.7157 24.797 51.6741 24.797C51.6325 24.797 51.5915 24.7875 51.5541 24.7693L48.8779 23.2189C48.804 23.182 48.7671 23.0897 48.7671 23.016V19.9151C48.7671 19.8228 48.804 19.749 48.8779 19.7122L51.5541 18.1617C51.5915 18.1434 51.6325 18.134 51.6741 18.134C51.7157 18.134 51.7568 18.1434 51.7941 18.1617L54.4703 19.7122C54.5443 19.7489 54.5812 19.8414 54.5812 19.9151V23.016ZM81.3437 19.8414C81.6391 19.6753 81.8052 19.3615 81.8052 19.0291V16.8328C81.8052 16.5007 81.6206 16.1869 81.3437 16.0208L73.5734 11.5173C73.4299 11.4357 73.2677 11.3927 73.1027 11.3927C72.9376 11.3927 72.7754 11.4357 72.632 11.5173L64.8062 16.0391C64.5107 16.2052 64.3263 16.519 64.3263 16.8512V25.8768C64.3263 26.2089 64.5109 26.5227 64.8062 26.6888L72.5765 31.1185C72.872 31.2845 73.2227 31.2845 73.4996 31.1185L78.206 28.4978C78.3537 28.4239 78.446 28.2578 78.446 28.0917C78.446 27.9257 78.3537 27.7596 78.206 27.6856L70.3433 23.1637C70.1956 23.0714 70.1033 22.9238 70.1033 22.7577V19.9338C70.1033 19.7677 70.1956 19.6016 70.3433 19.5277L72.798 18.1249C72.8699 18.0797 72.9531 18.0557 73.038 18.0557C73.1229 18.0557 73.2061 18.0797 73.2779 18.1249L75.7328 19.5277C75.8805 19.62 75.9726 19.7676 75.9726 19.9338V22.1486C75.9726 22.3147 76.0649 22.4808 76.2127 22.5546C76.2845 22.5998 76.3677 22.6238 76.4526 22.6238C76.5375 22.6238 76.6207 22.5998 76.6926 22.5546L81.3437 19.8414Z" fill="#D6D6D6"/>
<path d="M72.9826 19.4167C73.01 19.3987 73.0421 19.389 73.0749 19.389C73.1078 19.389 73.1399 19.3987 73.1673 19.4167L74.6623 20.2842C74.7176 20.3212 74.7545 20.3765 74.7545 20.4503V22.1854C74.7545 22.2592 74.7177 22.3146 74.6623 22.3515L73.1673 23.2189C73.1399 23.237 73.1078 23.2466 73.0749 23.2466C73.0421 23.2466 73.01 23.237 72.9826 23.2189L71.4877 22.3515C71.4323 22.3146 71.3954 22.2592 71.3954 22.1854V20.4504C71.3954 20.3765 71.4322 20.3211 71.4877 20.2843L72.9826 19.4167Z" fill="#D6D6D6"/>
<path d="M30.7715 11.5542C30.6281 11.4726 30.4659 11.4297 30.3009 11.4297C30.1359 11.4297 29.9737 11.4726 29.8303 11.5542L22.0599 16.039C21.7645 16.2051 21.5984 16.5189 21.5984 16.851V25.8397C21.5984 26.1719 21.783 26.4857 22.0599 26.6518L29.8303 31.1368C29.9737 31.2185 30.1359 31.2614 30.3009 31.2614C30.4659 31.2614 30.6281 31.2185 30.7715 31.1368L38.542 26.6518C38.8373 26.4857 39.0036 26.1719 39.0036 25.8397V16.8512C39.0036 16.519 38.8188 16.2052 38.542 16.0391L30.7715 11.5542Z" fill="#D6D6D6"/>
<path d="M38.5604 16.0391L30.7532 11.5542C30.6765 11.5155 30.5961 11.4846 30.5132 11.4619L21.7645 26.4491C21.837 26.5376 21.9245 26.6126 22.0231 26.6706L29.8303 31.1557C30.0518 31.2849 30.3102 31.3218 30.55 31.2478L38.7635 16.2239C38.7081 16.1501 38.6342 16.0944 38.5604 16.0391Z" fill="#D6D6D6"/>
<path fill-rule="evenodd" clip-rule="evenodd" d="M29.5719 9.91143L29.4612 9.96685H29.6088L29.5719 9.91143Z" fill="#D6D6D6"/>
<path fill-rule="evenodd" clip-rule="evenodd" d="M38.5789 26.6519C38.8004 26.5227 38.9665 26.3012 39.0405 26.0614L30.4761 11.4434C30.2546 11.4065 30.0146 11.4249 29.8118 11.5541L22.0598 16.0208L30.4207 31.2662C30.5423 31.2463 30.6604 31.209 30.7714 31.1555L38.5788 26.6521L38.5789 26.6519Z" fill="#D6D6D6"/>
<path fill-rule="evenodd" clip-rule="evenodd" d="M39.2988 26.5044L39.2434 26.4121V26.5412L39.2988 26.5044Z" fill="#D6D6D6"/>
<path fill-rule="evenodd" clip-rule="evenodd" d="M38.5789 26.6519L30.7901 31.137C30.6801 31.1931 30.5616 31.2306 30.4394 31.2478L30.5871 31.5246L39.2249 26.5229V26.4121L39.0034 26.0428C38.9665 26.3012 38.8004 26.5227 38.5789 26.6519Z" fill="#D6D6D6"/>
<path fill-rule="evenodd" clip-rule="evenodd" d="M38.5789 26.6519L30.7901 31.137C30.6801 31.1931 30.5616 31.2306 30.4394 31.2478L30.5871 31.5246L39.2249 26.5229V26.4121L39.0034 26.0428C38.9665 26.3012 38.8004 26.5227 38.5789 26.6519Z" fill="#D6D6D6"/>
</svg>
