<svg width="115" height="30" viewBox="0 0 115 30" fill="none" xmlns="http://www.w3.org/2000/svg">
<path d="M9.24032 3.09121C8.07636 1.71013 7.0738 0.307569 6.86921 0.0161331C6.86434 0.0110342 6.85849 0.00697554 6.852 0.00420261C6.84552 0.00142967 6.83854 0 6.83149 0C6.82444 0 6.81746 0.00142967 6.81098 0.00420261C6.8045 0.00697554 6.79865 0.0110342 6.79378 0.0161331C6.58896 0.307569 5.58662 1.71013 4.42267 3.09121C-5.56831 15.8334 5.99624 24.4323 5.99624 24.4323L6.09316 24.4972C6.17934 25.8241 6.3949 27.7339 6.3949 27.7339H7.25712C7.25712 27.7339 7.47267 25.8349 7.55885 24.4972L7.656 24.4215C7.66674 24.4323 19.2311 15.8334 9.24032 3.09121ZM6.82601 24.2382C6.82601 24.2382 6.30872 23.7957 6.1686 23.5694V23.5477L6.79378 9.67269C6.79378 9.62949 6.85846 9.62949 6.85846 9.67269L7.48342 23.5477V23.5694C7.3433 23.7957 6.82601 24.2382 6.82601 24.2382Z" fill="#D6D6D6"/>
<path d="M28.4682 21.4069L23.6489 9.63686L23.6384 9.60441H19.8892V10.3954H20.494C20.6777 10.3954 20.8505 10.4715 20.9804 10.6014C21.11 10.7314 21.1749 10.9049 21.1749 11.0893L21.0668 22.9348C21.0668 23.3035 20.7644 23.6068 20.3968 23.6177L19.781 23.6285V24.4088H23.4332V23.6285L23.0549 23.6177C22.6876 23.6068 22.3849 23.3035 22.3849 22.935V11.7716L27.6362 24.4085C27.7118 24.5928 27.8846 24.7121 28.0794 24.7121C28.2736 24.7121 28.4464 24.5928 28.5221 24.4085L33.6547 12.0534L33.7303 22.9348C33.7303 23.314 33.4277 23.6175 33.0494 23.6283H32.6604V24.4085H36.9393V23.6283H36.3557C35.9886 23.6283 35.6858 23.314 35.6753 22.9455L35.6426 11.0996C35.6424 10.9197 35.7122 10.7468 35.8373 10.6174C35.9623 10.488 36.1327 10.4122 36.3125 10.4062L36.9393 10.3952V9.60418H33.2872L28.4679 21.4067L28.4682 21.4069ZM62.069 23.4223C61.95 23.303 61.8848 23.1403 61.8848 22.9447V17.1258C61.8848 16.0185 61.56 15.1497 60.91 14.5311C60.2707 13.9122 59.3825 13.5974 58.2777 13.5974C56.7283 13.5974 55.5043 14.2271 54.6484 15.4647C54.6376 15.4864 54.6052 15.4974 54.5727 15.4974C54.54 15.4974 54.5186 15.4754 54.5186 15.443L54.1177 13.8904H53.4459L51.7235 14.8785V15.4213H52.1676C52.3735 15.4213 52.5468 15.4754 52.6661 15.5842C52.7852 15.6928 52.8501 15.8555 52.8501 16.0834V22.9339C52.8501 23.1293 52.7852 23.2923 52.6661 23.4118C52.5468 23.5311 52.3843 23.5962 52.1893 23.5962H51.756V24.3886H55.7208V23.5962H55.2877C55.0925 23.5962 54.93 23.5311 54.8109 23.4118C54.6918 23.2923 54.6267 23.1293 54.6267 22.9339V18.3958C54.6267 17.8206 54.7567 17.2451 54.9951 16.6803C55.2442 16.1268 55.6124 15.6599 56.1 15.3015C56.5875 14.9434 57.1726 14.7697 57.8441 14.7697C58.6025 14.7697 59.1766 15.0085 59.5341 15.4862C59.8915 15.9638 60.0758 16.5828 60.0758 17.321V22.9229C60.0758 23.1183 60.0108 23.2811 59.8915 23.4006C59.7725 23.5201 59.61 23.5851 59.4148 23.5851H58.9816V24.3777H62.9465V23.5853H62.5133C62.3508 23.607 62.1991 23.5418 62.069 23.4223ZM98.2933 10.4906C97.1974 9.90703 95.9725 9.60418 94.6508 9.60418H89.4936V10.3932H89.9983C90.1917 10.3932 90.3636 10.4689 90.5355 10.6417C90.6967 10.8039 90.7826 10.9877 90.7826 11.1822V22.8106C90.7826 23.0053 90.6969 23.1889 90.5355 23.3511C90.3744 23.5132 90.1917 23.5996 89.9983 23.5996H89.4933V24.3886H94.6508C95.9725 24.3886 97.1974 24.086 98.2933 23.5022C99.3892 22.9187 100.281 22.054 100.926 20.9518C101.57 19.8497 101.904 18.5203 101.904 17.0071C101.904 15.4942 101.57 14.1756 100.926 13.0627C100.27 11.9388 99.389 11.0849 98.2933 10.4906ZM99.8299 16.9857C99.8299 18.369 99.5828 19.5361 99.0991 20.4764C98.6156 21.4165 97.971 22.1189 97.1759 22.5731C96.3808 23.0268 95.4996 23.2538 94.5541 23.2538H93.5119C93.3185 23.2538 93.1466 23.1781 92.9747 23.0053C92.8135 22.843 92.7276 22.6595 92.7276 22.465V11.4956C92.7276 11.3009 92.8028 11.1283 92.9747 10.9553C93.1358 10.7932 93.3185 10.7068 93.5119 10.7068H94.5541C95.4996 10.7068 96.3806 10.9335 97.1759 11.3875C97.971 11.8414 98.6156 12.5438 99.0991 13.4842C99.5826 14.435 99.8299 15.6131 99.8299 16.9857ZM114.095 17.7747C113.618 17.2234 112.697 16.7587 111.615 16.51C113.109 15.7644 113.877 14.7162 113.877 13.3651C113.877 12.6305 113.683 11.971 113.293 11.4092C112.903 10.8474 112.35 10.3932 111.647 10.0798C110.942 9.76646 110.119 9.60441 109.188 9.60441H103.35V10.3932H103.815C104.01 10.3932 104.184 10.4689 104.357 10.6417C104.52 10.8039 104.606 10.9877 104.606 11.1822V22.8106C104.606 23.0053 104.52 23.1889 104.357 23.3511C104.195 23.5132 104.01 23.5996 103.815 23.5996H103.306V24.3886H109.643C110.607 24.3886 111.505 24.2266 112.318 23.9022C113.131 23.5781 113.781 23.1025 114.247 22.4757C114.723 21.849 114.961 21.0814 114.961 20.1953C114.95 19.2444 114.669 18.4337 114.095 17.7747ZM106.827 23.0161C106.664 22.854 106.577 22.6702 106.577 22.4757V17.2556H109.589C110.65 17.2556 111.462 17.5258 112.026 18.0659C112.589 18.6065 112.871 19.3089 112.871 20.1735C112.871 20.6922 112.74 21.2003 112.503 21.665C112.253 22.1404 111.884 22.5187 111.387 22.8106C110.899 23.1022 110.293 23.2538 109.589 23.2538H107.368C107.173 23.2538 107 23.1779 106.826 23.0158L106.827 23.0161ZM106.588 16.1427V11.5063C106.588 11.3118 106.664 11.139 106.837 10.966C107 10.8039 107.184 10.7175 107.379 10.7175H108.809C109.837 10.7175 110.596 10.977 111.073 11.4741C111.549 11.982 111.787 12.6305 111.787 13.43C111.787 14.2515 111.56 14.9107 111.116 15.4078C110.671 15.894 110 16.1427 109.112 16.1427H106.588ZM46.975 14.2864C46.1473 13.8343 45.2228 13.597 44.2232 13.597C43.2499 13.597 42.3378 13.8116 41.5362 14.2506L41.4715 14.2864C40.6438 14.7388 39.9882 15.3957 39.5045 16.2251C39.021 17.0544 38.7736 18.0238 38.7736 19.1007C38.7736 20.1778 39.0207 21.1472 39.5045 21.9766C39.9882 22.8059 40.6438 23.4628 41.4715 23.915C42.2993 24.3674 43.2237 24.6044 44.2232 24.6044C45.1966 24.6044 46.1088 24.39 46.9101 23.9512L46.975 23.9152C47.8025 23.4628 48.4584 22.8059 48.9421 21.9766C49.4256 21.1472 49.6729 20.1778 49.6729 19.1007C49.6729 18.0238 49.4256 17.0544 48.9421 16.2251C48.4584 15.3957 47.8028 14.7386 46.975 14.2864ZM47.7703 19.1007C47.7703 20.4256 47.448 21.5025 46.8029 22.2781C46.1688 23.0534 45.2983 23.4519 44.2232 23.4519C43.1675 23.4519 42.3089 23.0675 41.6777 22.3193L41.6437 22.2781C40.9986 21.5025 40.676 20.4256 40.676 19.1007C40.676 17.8002 40.9872 16.7383 41.6087 15.9661L41.6437 15.9236C42.2776 15.1482 43.1485 14.7495 44.2232 14.7495C45.2983 14.7495 46.1688 15.148 46.8029 15.9236C47.448 16.6991 47.7703 17.776 47.7703 19.1007ZM85.0685 14.2864C84.2408 13.8343 83.3166 13.597 82.3169 13.597C81.3437 13.597 80.4313 13.8116 79.63 14.2506L79.565 14.2864C78.7375 14.7388 78.0819 15.3957 77.5982 16.2251C77.1145 17.0544 76.8671 18.0238 76.8671 19.1007C76.8671 20.1778 77.1145 21.1472 77.5982 21.9766C78.0817 22.8059 78.7375 23.4628 79.5653 23.915C80.3928 24.3674 81.3172 24.6044 82.3169 24.6044C83.2901 24.6044 84.2025 24.39 85.0038 23.9512L85.0687 23.9152C85.8963 23.4628 86.5519 22.8059 87.0356 21.9766C87.5193 21.1472 87.7664 20.1778 87.7664 19.1007C87.7664 18.0238 87.5193 17.0544 87.0356 16.2251C86.5521 15.3957 85.8855 14.7386 85.0685 14.2864ZM85.864 19.1007C85.864 20.4256 85.5415 21.5025 84.8966 22.2781C84.2623 23.0534 83.3918 23.4519 82.3169 23.4519C81.2611 23.4519 80.4024 23.0675 79.7714 22.3193L79.7372 22.2781C79.0923 21.5025 78.7697 20.4256 78.7697 19.1007C78.7697 17.7895 79.0807 16.7379 79.7023 15.9661L79.7372 15.9236C80.3713 15.1482 81.242 14.7495 82.3169 14.7495C83.3918 14.7495 84.2623 15.148 84.8966 15.9236C85.5308 16.6991 85.864 17.776 85.864 19.1007ZM69.7061 13.5972C68.8399 13.5972 68.0497 13.781 67.3353 14.149C66.6208 14.5167 66.0578 15.0145 65.6574 15.6529C65.259 16.2724 65.0485 16.9939 65.0512 17.7304C65.0512 18.4012 65.2028 19.0179 65.5168 19.5699C65.8196 20.0999 66.2311 20.5436 66.7508 20.9113L65.2028 23.0105C65.008 23.2701 64.9863 23.6164 65.1269 23.8978C65.2784 24.1899 65.56 24.3629 65.8848 24.3629H66.3287C65.9137 24.6429 65.5781 24.9726 65.3413 25.3612L65.3109 25.4125C65.0295 25.8776 64.8887 26.3647 64.8887 26.8622C64.8887 27.7762 65.2856 28.5336 66.0688 29.1035L66.112 29.1344C66.9133 29.7079 68.039 30 69.457 30C70.4421 30 71.384 29.8377 72.2393 29.5239C73.0805 29.2193 73.7683 28.7714 74.2834 28.1907L74.3281 28.1392C74.8586 27.5331 75.1295 26.7973 75.1295 25.9535C75.1295 25.0662 74.8047 24.4385 74.047 23.8328C73.3974 23.3243 72.3799 23.0539 71.1132 23.0539H66.7833C66.7769 23.0533 66.7709 23.0508 66.766 23.0467L66.7616 23.0429L66.7595 23.0384C66.7573 23.0315 66.7537 23.0183 66.7616 23.0105L67.8875 21.4958C68.1541 21.62 68.4336 21.7143 68.721 21.7769C68.9807 21.8311 69.273 21.8528 69.5978 21.8528C70.507 21.8528 71.3298 21.6688 72.0443 21.301C72.7588 20.933 73.3325 20.4354 73.7439 19.7968C74.1551 19.1694 74.3608 18.4661 74.3608 17.7196C74.3608 16.919 73.9714 15.4582 72.9104 14.7117C72.9104 14.705 72.9142 14.7025 72.9173 14.7014L72.9211 14.7007L75.2486 14.9604V13.8893H71.5246C70.9401 13.7053 70.3338 13.5972 69.7061 13.5972ZM71.0051 20.3705C70.5937 20.5868 70.15 20.7058 69.7061 20.7058C68.9809 20.7058 68.3421 20.4462 67.8008 19.9376C67.2596 19.4291 66.989 18.6826 66.989 17.7304C66.989 16.7782 67.2596 16.0314 67.8008 15.5231C68.3421 15.0145 68.9807 14.7549 69.7061 14.7549C70.1417 14.7549 70.5576 14.8543 70.9536 15.0625L71.0051 15.0902C71.4165 15.3067 71.752 15.6422 72.0226 16.0858C72.2823 16.5295 72.4233 17.0812 72.4233 17.7304C72.4233 18.3905 72.2932 18.9422 72.0226 19.3749C71.763 19.8185 71.4165 20.1541 71.0051 20.3705ZM71.0051 24.3521C71.8169 24.3521 72.3367 24.5144 72.6829 24.8607C73.0294 25.207 73.2025 25.6721 73.2025 26.2131C73.2025 27.003 72.8886 27.6524 72.2608 28.139C71.6329 28.6261 70.7886 28.8748 69.7493 28.8748C68.8399 28.8748 68.0822 28.6693 67.53 28.2798C66.978 27.8903 66.6966 27.2949 66.6966 26.5377C66.6966 26.0616 66.8265 25.6179 67.0863 25.2285C67.346 24.839 67.66 24.5576 68.0712 24.3521H71.0051Z" fill="#D6D6D6"/>
</svg>
