<svg width="37" height="32" viewBox="0 0 37 32" fill="none" xmlns="http://www.w3.org/2000/svg">
<path d="M9.22315 11.0002C4.82826 12.1335 1.96167 14.0751 1.96167 16.2917C1.96167 19.8033 9.30315 22.6666 18.3779 22.6666C19.6112 22.6666 20.4779 22.6016 21.6278 22.5049M15.023 22.4998C14.3347 21.5065 13.6797 20.6115 13.0564 19.4999C8.47154 11.3334 7.24323 3.21695 10.3398 1.37866C12.2564 0.217027 15.418 1.80032 18.6296 5.13524M9.343 21.6448C8.17302 26.1247 8.40969 29.5046 10.2763 30.6363C13.2479 32.4362 19.2544 27.373 23.681 19.2966C24.2809 18.1799 24.8193 17.0816 25.2943 16M18.6281 26.8664C21.8413 30.1997 24.9896 31.783 26.9245 30.6213C30.0078 28.7847 28.7928 20.6683 24.2029 12.5001C23.563 11.3718 22.908 10.4935 22.2363 9.50021M28.0611 20.9998C32.4143 19.8549 35.2942 17.9166 35.2942 15.7066C35.2942 12.1901 27.9478 9.33347 18.8863 9.33347C17.6414 9.33347 16.7764 9.3818 15.6281 9.47846M11.9613 16C12.4363 14.9001 12.9729 13.8201 13.5746 12.7035C17.9861 4.63033 23.996 -0.446208 26.9842 1.36875C28.8342 2.50038 29.0875 5.87863 27.9175 10.3569M19.0611 16.025H19.0444C19.0278 16.2417 18.8444 16.425 18.6111 16.425C18.4995 16.4195 18.3942 16.3716 18.3168 16.291C18.2394 16.2105 18.1956 16.1034 18.1945 15.9917C18.1945 15.7584 18.3778 15.5751 18.5944 15.5751H18.5778C18.7944 15.5584 18.9944 15.7584 18.9944 15.975" stroke="#D6D6D6" stroke-width="2" stroke-linecap="round" stroke-linejoin="round"/>
</svg>
