<svg width="61" height="20" viewBox="0 0 61 20" fill="none" xmlns="http://www.w3.org/2000/svg">
<path d="M25.1902 20C24.2457 20 23.4535 19.68 22.8135 19.04C22.1735 18.4 21.8546 17.6089 21.8568 16.6667V13.3333H26.8568V15H33.5235V11.6667H25.1902C24.2457 11.6667 23.4535 11.3467 22.8135 10.7067C22.1735 10.0667 21.8546 9.27556 21.8568 8.33334V3.33334C21.8568 2.3889 22.1768 1.59668 22.8168 0.956676C23.4568 0.316677 24.2479 -0.00221069 25.1902 1.1534e-05H35.1902C36.1346 1.1534e-05 36.9268 0.320011 37.5668 0.960011C38.2068 1.60001 38.5257 2.39112 38.5235 3.33334V6.66667H33.5235V5.00001H26.8568V8.33334H35.1902C36.1346 8.33334 36.9268 8.65334 37.5668 9.29333C38.2068 9.93333 38.5257 10.7244 38.5235 11.6667V16.6667C38.5235 17.6111 38.2035 18.4033 37.5635 19.0433C36.9235 19.6833 36.1324 20.0022 35.1902 20H25.1902ZM46.8568 20C45.9124 20 45.1202 19.68 44.4802 19.04C43.8402 18.4 43.5213 17.6089 43.5235 16.6667V13.3333H48.5235V15H55.1901V11.6667H46.8568C45.9124 11.6667 45.1202 11.3467 44.4802 10.7067C43.8402 10.0667 43.5213 9.27556 43.5235 8.33334V3.33334C43.5235 2.3889 43.8435 1.59668 44.4835 0.956676C45.1235 0.316677 45.9146 -0.00221069 46.8568 1.1534e-05H56.8568C57.8012 1.1534e-05 58.5935 0.320011 59.2335 0.960011C59.8735 1.60001 60.1924 2.39112 60.1901 3.33334V6.66667H55.1901V5.00001H48.5235V8.33334H56.8568C57.8012 8.33334 58.5935 8.65334 59.2335 9.29333C59.8735 9.93333 60.1924 10.7244 60.1901 11.6667V16.6667C60.1901 17.6111 59.8701 18.4033 59.2301 19.0433C58.5901 19.6833 57.799 20.0022 56.8568 20H46.8568ZM3.52353 20C2.57908 20 1.78686 19.68 1.14686 19.04C0.506863 18.4 0.187975 17.6089 0.190197 16.6667V3.33334C0.190197 2.3889 0.510197 1.59668 1.1502 0.956676C1.7902 0.316677 2.58131 -0.00221069 3.52353 1.1534e-05H13.5235C14.468 1.1534e-05 15.2602 0.320011 15.9002 0.960011C16.5402 1.60001 16.8591 2.39112 16.8568 3.33334V6.66667H11.8569V5.00001H5.19019V15H11.8569V13.3333H16.8568V16.6667C16.8568 17.6111 16.5368 18.4033 15.8968 19.0433C15.2568 19.6833 14.4657 20.0022 13.5235 20H3.52353Z" fill="#D6D6D6"/>
</svg>
