<svg width="34" height="30" viewBox="0 0 34 30" fill="none" xmlns="http://www.w3.org/2000/svg">
<path d="M17.0043 12.0521C18.6108 12.0521 19.921 13.3623 19.921 15C19.921 16.5597 18.6108 17.8855 17.0043 17.8855C15.3978 17.8855 14.0876 16.5597 14.0876 15C14.0876 13.3623 15.3978 12.0521 17.0043 12.0521ZM9.78275 27.4779C10.7654 28.0706 12.9178 27.1659 15.3978 24.8263C14.5867 23.9061 13.7913 22.9078 13.0426 21.8628C11.7857 21.7425 10.5361 21.5551 9.29923 21.3013C8.50376 24.6391 8.80011 26.932 9.78275 27.4779ZM10.8902 18.525L10.4378 17.7295C10.2663 18.1819 10.0947 18.6342 9.98551 19.0709C10.4066 19.1645 10.8746 19.2425 11.3581 19.3205L10.8902 18.525ZM21.0908 17.3396L22.3542 15L21.0908 12.6604C20.6229 11.8337 20.1238 11.1007 19.6714 10.3676C18.8292 10.3208 17.9401 10.3208 17.0043 10.3208C16.0685 10.3208 15.1794 10.3208 14.3372 10.3676C13.8848 11.1007 13.3857 11.8337 12.9178 12.6604L11.6544 15L12.9178 17.3396C13.3857 18.1663 13.8848 18.8993 14.3372 19.6324C15.1794 19.6792 16.0685 19.6792 17.0043 19.6792C17.9401 19.6792 18.8292 19.6792 19.6714 19.6324C20.1238 18.8993 20.6229 18.1663 21.0908 17.3396ZM17.0043 6.8582C16.708 7.20134 16.396 7.56008 16.0841 7.9812H17.9245C17.6126 7.56008 17.3007 7.20134 17.0043 6.8582ZM17.0043 23.1418C17.3007 22.7987 17.6126 22.4399 17.9245 22.0188H16.0841C16.396 22.4399 16.708 22.7987 17.0043 23.1418ZM24.2103 2.52214C23.2432 1.92944 21.0908 2.83409 18.6108 5.17368C19.4219 6.09393 20.2174 7.09216 20.966 8.13718C22.245 8.26195 23.5084 8.44912 24.7094 8.69868C25.5048 5.36085 25.2085 3.06805 24.2103 2.52214ZM23.1185 11.475L23.5708 12.2705C23.7423 11.8181 23.9139 11.3658 24.0231 10.9291C23.602 10.8355 23.1341 10.7575 22.6505 10.6795L23.1185 11.475ZM25.3801 0.478889C27.6729 1.78906 27.9224 5.23607 26.9554 9.26018C30.9171 10.43 33.7714 12.3641 33.7714 15C33.7714 17.6359 30.9171 19.57 26.9554 20.7398C27.9224 24.7639 27.6729 28.2109 25.3801 29.5211C23.1029 30.8313 19.999 29.3339 17.0043 26.4796C14.0096 29.3339 10.9058 30.8313 8.61295 29.5211C6.33574 28.2109 6.08618 24.7639 7.05321 20.7398C3.09149 19.57 0.237183 17.6359 0.237183 15C0.237183 12.3641 3.09149 10.43 7.05321 9.26018C6.08618 5.23607 6.33574 1.78906 8.61295 0.478889C10.9058 -0.831286 14.0096 0.666057 17.0043 3.52037C19.999 0.666057 23.1029 -0.831286 25.3801 0.478889ZM24.9277 15C25.4581 16.1698 25.926 17.3396 26.3159 18.525C29.5913 17.5424 31.4318 16.1386 31.4318 15C31.4318 13.8614 29.5913 12.4576 26.3159 11.475C25.926 12.6604 25.4581 13.8302 24.9277 15ZM9.08087 15C8.55056 13.8302 8.08264 12.6604 7.6927 11.475C4.41727 12.4576 2.57678 13.8614 2.57678 15C2.57678 16.1386 4.41727 17.5424 7.6927 18.525C8.08264 17.3396 8.55056 16.1698 9.08087 15ZM23.1185 18.525L22.6505 19.3205C23.1341 19.2425 23.602 19.1645 24.0231 19.0709C23.9139 18.6342 23.7423 18.1819 23.5708 17.7295L23.1185 18.525ZM18.6108 24.8263C21.0908 27.1659 23.2432 28.0706 24.2103 27.4779C25.2085 26.932 25.5048 24.6391 24.7094 21.3013C23.5084 21.5509 22.245 21.738 20.966 21.8628C20.2174 22.9078 19.4219 23.9061 18.6108 24.8263ZM10.8902 11.475L11.3581 10.6795C10.8746 10.7575 10.4066 10.8355 9.98551 10.9291C10.0947 11.3658 10.2663 11.8181 10.4378 12.2705L10.8902 11.475ZM15.3978 5.17368C12.9178 2.83409 10.7654 1.92944 9.78275 2.52214C8.80011 3.06805 8.50376 5.36085 9.29923 8.69868C10.5361 8.4449 11.7857 8.25746 13.0426 8.13718C13.7913 7.09216 14.5867 6.09393 15.3978 5.17368Z" fill="#D6D6D6"/>
</svg>
