<svg width="38" height="20" viewBox="0 0 38 20" fill="none" xmlns="http://www.w3.org/2000/svg">
<path d="M5.38037 20C3.99149 20 2.81037 19.5133 1.83704 18.54C0.863711 17.5667 0.378156 16.3867 0.380379 15V11.6667H5.38037V15H10.3804V1.1534e-05H15.3804V15C15.3804 16.3889 14.8937 17.57 13.9204 18.5433C12.947 19.5167 11.767 20.0022 10.3804 20H5.38037ZM23.7137 20C22.7692 20 21.977 19.68 21.337 19.04C20.697 18.4 20.3781 17.6089 20.3804 16.6667V13.3333H25.3803V15H32.047V11.6667H23.7137C22.7692 11.6667 21.977 11.3467 21.337 10.7067C20.697 10.0667 20.3781 9.27556 20.3804 8.33334V3.33334C20.3804 2.3889 20.7004 1.59668 21.3404 0.956676C21.9804 0.316677 22.7715 -0.00221069 23.7137 1.1534e-05H33.7137C34.6581 1.1534e-05 35.4503 0.320011 36.0903 0.960011C36.7303 1.60001 37.0492 2.39112 37.047 3.33334V6.66667H32.047V5.00001H25.3803V8.33334H33.7137C34.6581 8.33334 35.4503 8.65334 36.0903 9.29333C36.7303 9.93333 37.0492 10.7244 37.047 11.6667V16.6667C37.047 17.6111 36.727 18.4033 36.087 19.0433C35.447 19.6833 34.6559 20.0022 33.7137 20H23.7137Z" fill="#D6D6D6"/>
</svg>
