<svg width="48" height="50" viewBox="0 0 48 50" fill="none" xmlns="http://www.w3.org/2000/svg">
<path d="M11.6333 25.998L10.3749 25.2735L24.3893 1.1128L25.6459 1.83461L11.6333 25.998Z" fill="#D6D6D6"/>
<path d="M10.0872 23.3435H38.1142V24.7906H10.0872V23.3435Z" fill="#D6D6D6"/>
<path d="M24.6599 32.2136L10.6421 24.1568L11.3674 22.9037L25.387 30.9609L24.6599 32.2136ZM36.8392 11.2134L22.8192 3.15663L23.5463 1.90522L37.5645 9.962L36.8392 11.2134Z" fill="#D6D6D6"/>
<path d="M11.3709 11.2086L10.6456 9.95677L24.6652 1.89999L25.3905 3.1514L11.3709 11.2086Z" fill="#D6D6D6"/>
<path d="M36.5803 25.998L22.5664 1.83461L23.8244 1.1128L37.8392 25.2735L36.5803 25.998ZM11.1987 8.99871H12.6515V25.1123H11.1987V8.99871Z" fill="#D6D6D6"/>
<path d="M35.5586 8.99871H37.011V25.1123H35.5586V8.99871Z" fill="#D6D6D6"/>
<path d="M24.4132 31.6012L23.7782 30.508L35.971 23.4999L36.6061 24.5927L24.4132 31.6012Z" fill="#D6D6D6"/>
<path d="M38.9367 25.5821C38.0976 27.038 36.2247 27.5336 34.7636 26.6975C34.4164 26.4991 34.1119 26.234 33.8676 25.9174C33.6232 25.6009 33.4438 25.2391 33.3397 24.853C33.2356 24.4669 33.2088 24.0641 33.261 23.6676C33.3131 23.2711 33.443 22.8888 33.6434 22.5428C34.4829 21.0869 36.3554 20.5918 37.8165 21.4278C39.2876 22.2721 39.7867 24.1285 38.9367 25.5821ZM14.5585 11.5678C13.719 13.0219 11.846 13.5188 10.3849 12.6828C10.0378 12.4841 9.73333 12.2188 9.48902 11.9021C9.24471 11.5854 9.06537 11.2236 8.96128 10.8375C8.85719 10.4513 8.83041 10.0483 8.88248 9.65178C8.93456 9.25523 9.06445 8.87287 9.26471 8.52665C10.1042 7.07256 11.9772 6.57523 13.4378 7.41124C14.8989 8.25772 15.398 10.1119 14.5585 11.5678ZM9.27343 25.5821C8.43218 24.128 8.93126 22.2721 10.3936 21.4278C11.8547 20.5918 13.719 21.0869 14.5667 22.5428C15.408 23.9968 14.9089 25.8528 13.4465 26.6975C11.9772 27.5336 10.1125 27.038 9.27343 25.5821ZM33.6517 11.5678C32.8126 10.1119 33.3117 8.25772 34.7719 7.41124C36.2329 6.57523 38.0976 7.07256 38.9454 8.52665C39.7867 9.98249 39.2876 11.8367 37.8252 12.6828C36.3641 13.5188 34.4912 13.0219 33.6517 11.5678ZM24.1051 34.1105C22.416 34.1105 21.0504 32.7519 21.0504 31.0698C21.0504 29.3891 22.416 28.0305 24.1051 28.0305C25.7941 28.0305 27.1597 29.3891 27.1597 31.0698C27.1597 32.7419 25.7941 34.1105 24.1051 34.1105ZM24.1051 6.08007C22.416 6.08007 21.0504 4.72143 21.0504 3.03894C21.0504 1.35863 22.416 0 24.1051 0C25.7941 0 27.1597 1.35863 27.1597 3.03894C27.1597 4.72143 25.7941 6.08007 24.1051 6.08007ZM42.6844 47.669C42.6484 47.6708 42.6125 47.6653 42.5787 47.6527C42.545 47.6401 42.5142 47.6207 42.4882 47.5957C42.4631 47.5699 42.4435 47.5391 42.4307 47.5054C42.4178 47.4716 42.4121 47.4356 42.4137 47.3996V39.3515C42.4137 39.2696 42.439 39.2033 42.4887 39.1541C42.5146 39.1292 42.5453 39.1098 42.5789 39.0972C42.6126 39.0846 42.6485 39.0791 42.6844 39.0809H42.9198C43.0013 39.0809 43.0675 39.1044 43.1168 39.1541C43.1417 39.1803 43.1611 39.2113 43.1737 39.2453C43.1862 39.2792 43.1918 39.3154 43.19 39.3515V46.9332H47.4433C47.5335 46.9332 47.6033 46.9572 47.6525 47.0064C47.7022 47.0561 47.7257 47.1259 47.7257 47.2143V47.4C47.7275 47.4359 47.722 47.4718 47.7094 47.5055C47.6968 47.5391 47.6774 47.5698 47.6525 47.5957C47.6033 47.645 47.5335 47.669 47.4433 47.669H42.6844ZM39.8377 48.4657C39.7936 48.4662 39.75 48.4572 39.7098 48.4393C39.6695 48.4214 39.6336 48.395 39.6045 48.362C39.549 48.3047 39.4955 48.2455 39.4441 48.1846L38.901 47.4358C38.4088 47.6725 37.8335 47.7914 37.1762 47.7914C36.4936 47.7914 35.9148 47.6707 35.4379 47.4305C34.961 47.1886 34.5949 46.816 34.3412 46.3134C34.0858 45.8095 33.9463 45.1744 33.9228 44.4051C33.9141 44.0372 33.9088 43.6933 33.9088 43.3747C33.9088 43.0565 33.9141 42.7122 33.9224 42.3447C33.9463 41.5837 34.0945 40.9521 34.3652 40.4478C34.6359 39.9456 35.012 39.5712 35.4941 39.3258C35.974 39.0809 36.5346 38.9579 37.1766 38.9579C37.8165 38.9579 38.3766 39.0809 38.8587 39.3258C39.3386 39.5712 39.7165 39.9456 39.9924 40.4478C40.267 40.9521 40.413 41.5837 40.43 42.3447C40.4451 42.6878 40.4531 43.0312 40.454 43.3747C40.454 43.6929 40.4453 44.0372 40.43 44.4051C40.389 45.5746 40.0879 46.4346 39.5295 46.9829L40.3193 48.0857C40.3293 48.0989 40.3373 48.1134 40.3433 48.1288C40.3529 48.1583 40.3569 48.1894 40.355 48.2204C40.3554 48.2526 40.3491 48.2845 40.3365 48.3141C40.3239 48.3437 40.3052 48.3704 40.2818 48.3925C40.2597 48.4158 40.233 48.4343 40.2035 48.4469C40.174 48.4595 40.1422 48.4659 40.1101 48.4657H39.8377ZM37.1762 47.0561C37.8827 47.0561 38.4633 46.843 38.9197 46.4176C39.3761 45.9917 39.6197 45.3004 39.6537 44.3436C39.669 43.9758 39.6777 43.6523 39.6777 43.3747C39.6777 43.0975 39.669 42.7736 39.6537 42.4062C39.6363 41.7676 39.519 41.248 39.3011 40.8479C39.0831 40.4465 38.792 40.1549 38.4258 39.9696C38.0619 39.7857 37.6443 39.6937 37.1762 39.6937C36.715 39.6937 36.3027 39.7852 35.937 39.9696C35.5708 40.1553 35.2797 40.4465 35.0617 40.8479C34.8438 41.248 34.7226 41.7676 34.6991 42.4062C34.6904 42.7736 34.6851 43.0975 34.6851 43.3747C34.6851 43.6523 34.6904 43.9762 34.6991 44.3436C34.7313 45.3004 34.9781 45.9917 35.4379 46.4176C35.8978 46.843 36.4766 47.0561 37.1762 47.0561ZM27.093 47.669C27.0571 47.6708 27.0212 47.6652 26.9876 47.6526C26.9539 47.64 26.9232 47.6207 26.8973 47.5957C26.8721 47.5699 26.8524 47.5392 26.8395 47.5054C26.8266 47.4717 26.8208 47.4357 26.8223 47.3996V39.2269C26.8209 39.1909 26.8268 39.155 26.8397 39.1213C26.8526 39.0877 26.8722 39.057 26.8973 39.0312C26.9232 39.0062 26.954 38.9868 26.9878 38.9742C27.0215 38.9616 27.0575 38.9561 27.0934 38.9579H27.3027C27.3859 38.9579 27.4509 38.9819 27.5001 39.0312C27.5254 39.057 27.545 39.0877 27.5579 39.1215C27.5708 39.1552 27.5767 39.1912 27.5751 39.2273V42.1351C27.7945 41.8505 28.0691 41.6132 28.3823 41.4372C28.6988 41.2568 29.119 41.1665 29.6455 41.1665C30.2039 41.1665 30.6707 41.2873 31.0434 41.5292C31.4182 41.7689 31.6972 42.0958 31.8829 42.5099C32.0668 42.924 32.1601 43.3917 32.1601 43.9147V47.4C32.1617 47.436 32.1559 47.4719 32.143 47.5056C32.1302 47.5392 32.1107 47.5699 32.0856 47.5957C32.0594 47.6209 32.0283 47.6403 31.9942 47.6529C31.9602 47.6655 31.9239 47.671 31.8877 47.669H31.6784C31.6423 47.6708 31.6061 47.6652 31.5722 47.6526C31.5383 47.64 31.5072 47.6207 31.481 47.5957C31.456 47.5698 31.4366 47.539 31.424 47.5053C31.4115 47.4715 31.4059 47.4356 31.4078 47.3996V43.9758C31.4078 43.3219 31.2478 42.8076 30.9274 42.4367C30.6058 42.0636 30.1376 41.8783 29.5213 41.8783C28.939 41.8783 28.4691 42.0636 28.1112 42.4362C27.7538 42.8076 27.5751 43.3219 27.5751 43.9758V47.4C27.5766 47.436 27.5707 47.472 27.5578 47.5056C27.545 47.5393 27.5253 47.57 27.5001 47.5957C27.474 47.6208 27.443 47.6403 27.409 47.6528C27.375 47.6654 27.3388 47.6709 27.3027 47.669H27.093ZM19.9337 49.9996C19.8975 50.0016 19.8613 49.9961 19.8274 49.9835C19.7934 49.9709 19.7624 49.9515 19.7363 49.9264C19.7111 49.9006 19.6914 49.8699 19.6785 49.8363C19.6656 49.8026 19.6598 49.7667 19.6613 49.7307V41.5597C19.6613 41.4782 19.6866 41.4115 19.7363 41.3622C19.7624 41.3372 19.7934 41.3177 19.8274 41.3051C19.8613 41.2925 19.8975 41.2871 19.9337 41.289H20.1429C20.2249 41.289 20.2911 41.313 20.3404 41.3622C20.3653 41.3885 20.3847 41.4195 20.3973 41.4535C20.4099 41.4874 20.4154 41.5235 20.4136 41.5597V42.1351C20.6198 41.8578 20.8887 41.6264 21.2209 41.442C21.5543 41.2585 21.9749 41.1665 22.484 41.1665C22.9696 41.1665 23.3763 41.2498 23.7049 41.4185C24.0207 41.5746 24.2949 41.8033 24.5052 42.0858C24.7114 42.3648 24.8626 42.6751 24.9616 43.0186C25.0598 43.3623 25.1135 43.7173 25.1215 44.0747C25.1302 44.1972 25.1333 44.3319 25.1333 44.4801C25.1333 44.6261 25.1302 44.7608 25.1215 44.8833C25.1138 45.2406 25.06 45.5954 24.9616 45.939C24.8626 46.2833 24.7114 46.5928 24.5052 46.8717C24.295 47.1544 24.0207 47.3833 23.7049 47.5395C23.3763 47.7082 22.9696 47.7914 22.4845 47.7914C21.9749 47.7914 21.5543 47.6977 21.2204 47.509C20.8891 47.3216 20.6198 47.0919 20.414 46.8225V49.7307C20.4158 49.7667 20.4102 49.8027 20.3976 49.8364C20.3849 49.8701 20.3654 49.9009 20.3404 49.9268C20.3141 49.9517 20.2831 49.971 20.2491 49.9835C20.2152 49.996 20.1791 50.0015 20.1429 49.9996H19.9337ZM22.4108 47.0797C22.8946 47.0797 23.2778 46.9742 23.5572 46.7615C23.8361 46.5488 24.0462 46.2586 24.1613 45.9272C24.2838 45.5829 24.3535 45.2154 24.3705 44.8222C24.3773 44.5935 24.3773 44.3645 24.3705 44.1357C24.3566 43.759 24.2861 43.3865 24.1613 43.0308C24.0456 42.6996 23.8355 42.4095 23.5567 42.1965C23.2778 41.9838 22.8942 41.8783 22.4108 41.8783C21.9427 41.8783 21.5648 41.989 21.2771 42.2083C20.9947 42.4227 20.7754 42.7092 20.642 43.0378C20.5092 43.3554 20.432 43.6935 20.4136 44.0372C20.4049 44.1597 20.4018 44.3197 20.4018 44.5154C20.4018 44.7115 20.4053 44.8715 20.4136 44.994C20.4236 45.3291 20.5013 45.6587 20.642 45.9629C20.7849 46.2826 21.0106 46.5583 21.2958 46.7615C21.587 46.9742 21.9584 47.0797 22.4108 47.0797ZM14.7694 47.7919C14.3915 47.7958 14.0179 47.7118 13.678 47.5465C13.3606 47.3946 13.0841 47.1693 12.8712 46.8892C12.6679 46.6235 12.5594 46.2974 12.563 45.9629C12.563 45.4076 12.7897 44.9617 13.2404 44.6261C13.6915 44.2905 14.2791 44.0747 15.0026 43.9758L16.9506 43.7068V43.2762C16.9506 42.8434 16.8159 42.5012 16.5504 42.2527C16.2832 42.0025 15.8574 41.8779 15.2733 41.8779C14.8461 41.8779 14.5018 41.9616 14.2381 42.1303C13.9761 42.2972 13.7957 42.5164 13.6967 42.7858C13.6557 42.9079 13.5777 42.9698 13.4618 42.9698H13.2656C13.1671 42.9698 13.0974 42.944 13.0547 42.8896C13.0134 42.8353 12.9919 42.7686 12.9936 42.7004C12.9936 42.5849 13.0377 42.4419 13.1231 42.2715C13.2098 42.0993 13.3428 41.9293 13.525 41.7606C13.7054 41.5937 13.9386 41.4525 14.2263 41.3383C14.514 41.2245 14.8627 41.1665 15.2733 41.1665C15.7589 41.1665 16.159 41.231 16.4754 41.3627C16.7923 41.4934 17.039 41.6634 17.2164 41.8713C17.3917 42.0806 17.5172 42.3125 17.5909 42.5644C17.6658 42.8181 17.7016 43.0683 17.7016 43.3137V47.4C17.7034 47.4359 17.6978 47.4718 17.6852 47.5055C17.6726 47.5391 17.6533 47.5698 17.6283 47.5957C17.6021 47.6207 17.5711 47.64 17.5371 47.6526C17.5032 47.6652 17.467 47.6708 17.4309 47.669H17.2212C17.1851 47.6708 17.1489 47.6652 17.115 47.6526C17.081 47.64 17.05 47.6207 17.0238 47.5957C16.9988 47.5698 16.9794 47.539 16.9668 47.5053C16.9542 47.4715 16.9487 47.4356 16.9506 47.3996V46.8225C16.8333 46.9892 16.6921 47.1379 16.5317 47.2636C16.3512 47.4118 16.1176 47.536 15.8351 47.6385C15.5509 47.7404 15.1966 47.7914 14.7694 47.7914V47.7919ZM14.8919 47.0797C15.2698 47.0797 15.6155 46.9981 15.9271 46.8347C16.2388 46.6712 16.4872 46.4193 16.6729 46.0806C16.8586 45.7415 16.9506 45.3139 16.9506 44.7983V44.3811L15.3605 44.6026C14.6862 44.691 14.1771 44.8475 13.8314 45.0672C13.4871 45.2886 13.3136 45.5663 13.3136 45.9015C13.3136 46.1722 13.392 46.3936 13.549 46.5658C13.7054 46.7358 13.9046 46.8652 14.1461 46.9502C14.388 47.0374 14.6365 47.0797 14.8919 47.0797ZM9.12348 47.669C9.08733 47.6708 9.05118 47.6652 9.01724 47.6526C8.9833 47.64 8.95227 47.6207 8.92603 47.5957C8.90139 47.5696 8.88223 47.5387 8.86965 47.505C8.85708 47.4714 8.85135 47.4355 8.8528 47.3996V41.5719C8.8528 41.49 8.87809 41.422 8.92603 41.3692C8.95137 41.3426 8.98208 41.3217 9.01612 41.3079C9.05017 41.294 9.08677 41.2876 9.12348 41.289H9.32094C9.40288 41.289 9.47088 41.3165 9.52536 41.3692C9.55172 41.3958 9.57238 41.4275 9.58609 41.4624C9.59981 41.4972 9.60628 41.5345 9.60513 41.5719V42.1355C9.7428 41.8585 9.96802 41.6346 10.2459 41.4987C10.5248 41.3592 10.8705 41.2895 11.2806 41.2895H11.737C11.819 41.2895 11.8852 41.313 11.9345 41.3622C11.9594 41.3885 11.9788 41.4195 11.9914 41.4535C12.0039 41.4874 12.0095 41.5235 12.0077 41.5597V41.7297C12.0096 41.7659 12.0041 41.8022 11.9915 41.8362C11.979 41.8702 11.9595 41.9013 11.9345 41.9276C11.9082 41.9525 11.8772 41.9719 11.8433 41.9845C11.8093 41.9971 11.7732 42.0026 11.737 42.0008H11.2074C10.7136 42.0008 10.3239 42.1438 10.0362 42.4297C9.74853 42.7161 9.60513 43.1058 9.60513 43.5961V47.4C9.60657 47.4365 9.6002 47.4728 9.58644 47.5065C9.57268 47.5403 9.55186 47.5707 9.52536 47.5957C9.46917 47.6455 9.39596 47.6717 9.32094 47.669H9.12348ZM3.78746 47.7919C3.0809 47.7919 2.48636 47.6555 2.00646 47.3813C1.53492 47.1163 1.1531 46.7167 0.909792 46.2336C0.657855 45.7433 0.521861 45.1779 0.495708 44.5411C0.487426 44.1715 0.484375 43.7835 0.484375 43.3747C0.484375 42.9663 0.487426 42.5779 0.496144 42.2083C0.521861 41.5632 0.657855 40.9965 0.910228 40.5092C1.15622 40.0278 1.54016 39.6307 2.013 39.3685C2.49683 39.0939 3.08962 38.9579 3.78703 38.9579C4.35454 38.9579 4.83967 39.0416 5.24155 39.2103C5.64474 39.3768 5.97383 39.5865 6.22707 39.8349C6.4825 40.0851 6.67167 40.3357 6.79415 40.589C6.91838 40.8431 6.98332 41.0554 6.9916 41.2276C6.99723 41.2599 6.99458 41.2931 6.98391 41.3241C6.97324 41.3551 6.95489 41.3829 6.93058 41.405C6.87605 41.4523 6.80527 41.4767 6.73313 41.473H6.46201C6.38748 41.473 6.3343 41.4542 6.30204 41.4185C6.26805 41.381 6.23579 41.3182 6.20354 41.2276C6.11305 40.9601 5.97253 40.7124 5.78945 40.4975C5.59766 40.2643 5.33832 40.0716 5.01359 39.9221C4.68973 39.7704 4.27957 39.6937 3.78746 39.6937C3.05519 39.6937 2.46239 39.8929 2.00646 40.2895C1.5501 40.6862 1.30644 41.347 1.27244 42.2715C1.24861 43.0073 1.24861 43.7438 1.27244 44.4796C1.30644 45.3959 1.5501 46.0532 2.00646 46.455C2.46283 46.8552 3.05519 47.0561 3.78746 47.0561C4.27259 47.0561 4.70716 46.9642 5.09335 46.7802C5.47786 46.5985 5.79669 46.3022 6.00608 45.932C6.22707 45.5528 6.33779 45.0672 6.33779 44.4796V43.8533H4.19414C4.15742 43.8547 4.12082 43.8483 4.08678 43.8344C4.05273 43.8206 4.02202 43.7997 3.99668 43.7731C3.94669 43.7177 3.9204 43.6449 3.92346 43.5704V43.3987C3.92346 43.3102 3.94743 43.2404 3.99668 43.1908C4.02292 43.1658 4.05395 43.1465 4.08789 43.1339C4.12183 43.1213 4.15798 43.1157 4.19414 43.1175H6.83164C6.92186 43.1175 6.9916 43.1415 7.04086 43.1908C7.09055 43.2404 7.11452 43.3102 7.11452 43.3987V44.4796C7.11452 45.1335 6.98507 45.711 6.72615 46.2101C6.47307 46.7029 6.07799 47.1084 5.592 47.3743C5.0951 47.652 4.49358 47.7914 3.78746 47.7914V47.7919Z" fill="#D6D6D6"/>
</svg>
