<svg width="124" height="26" viewBox="0 0 124 26" fill="none" xmlns="http://www.w3.org/2000/svg">
<path d="M104.029 0.510414V4.49697H95.461V25.4705H91.1765V4.49721H82.4298V0.510414H104.029ZM104.992 23.0928C105.294 23.0928 105.558 23.2013 105.782 23.4188C106.008 23.6361 106.121 23.8964 106.124 24.1996C106.124 24.3986 106.069 24.5936 105.965 24.7632C105.863 24.9307 105.72 25.0694 105.549 25.1665C105.381 25.2671 105.188 25.3195 104.992 25.3181C104.678 25.3181 104.412 25.2094 104.188 24.9921C103.965 24.7746 103.854 24.5114 103.857 24.1996C103.854 23.8964 103.965 23.6361 104.188 23.4188C104.412 23.2013 104.678 23.0928 104.992 23.0928ZM20.0773 25.4705L4.27982 5.8351V25.4603H-0.00463867V0.5H5.35057L25.309 25.2837L25.3092 4.49721L25.3076 0.510414H46.9066V4.49697H29.5935V10.9103H43.5169V14.8971H29.5935V21.4839H46.9069V25.4705H20.0773ZM60.6377 14.8591L63.4455 18.3499L57.6921 25.5H52.0695L60.6377 14.8591ZM57.6921 0.520829L64.9411 9.52327L72.1672 0.548439L77.7741 0.539962L67.7481 13.0094L77.7903 25.4809H72.1672L52.0855 0.520829H57.6921ZM112.305 14.8032H114.203V22.1175C114.2 22.7896 114.055 23.3643 113.771 23.848C113.483 24.3312 113.085 24.7003 112.575 24.9606C112.066 25.2178 111.471 25.3496 110.795 25.3496C110.177 25.3496 109.622 25.2382 109.129 25.0207C108.635 24.8032 108.244 24.4772 107.956 24.048C107.665 23.6191 107.523 23.0841 107.523 22.4435H109.425C109.428 22.7237 109.492 22.9666 109.613 23.1701C109.733 23.3708 109.909 23.5327 110.119 23.6361C110.336 23.745 110.586 23.7993 110.867 23.7993C111.172 23.7993 111.434 23.7363 111.645 23.6075C111.857 23.4815 112.02 23.2929 112.133 23.0412C112.243 22.7922 112.302 22.4834 112.305 22.1172V14.8032ZM122.014 17.6635C121.968 17.2203 121.765 16.8739 121.411 16.6281C121.053 16.3791 120.592 16.2563 120.026 16.2563C119.629 16.2563 119.286 16.3164 119.001 16.4336C118.717 16.5537 118.496 16.7138 118.345 16.917C118.194 17.12 118.119 17.3518 118.113 17.6121C118.113 17.8294 118.165 18.0183 118.267 18.1755C118.372 18.3403 118.514 18.4784 118.682 18.579C118.864 18.6936 119.059 18.7866 119.263 18.8563C119.477 18.9307 119.692 18.9936 119.907 19.0452L120.897 19.2884C121.295 19.3799 121.681 19.5027 122.049 19.6602C122.418 19.8147 122.752 20.0121 123.045 20.2494C123.338 20.4868 123.57 20.7728 123.742 21.1075C123.913 21.4422 124 21.8341 124 22.2861C124 22.8952 123.843 23.4302 123.527 23.8935C123.21 24.3542 122.755 24.7146 122.157 24.9749C121.562 25.2324 120.841 25.3639 119.994 25.3639C119.175 25.3639 118.461 25.2379 117.86 24.9863C117.257 24.7376 116.786 24.3711 116.447 23.8906C116.107 23.4101 115.924 22.8237 115.898 22.1344H117.779C117.805 22.4948 117.922 22.7951 118.119 23.0383C118.319 23.2786 118.58 23.4559 118.9 23.576C119.222 23.6935 119.582 23.7535 119.979 23.7535C120.395 23.7535 120.76 23.6905 121.077 23.5675C121.39 23.4445 121.637 23.273 121.814 23.0497C121.994 22.8293 122.084 22.5692 122.087 22.2718C122.084 22 122.003 21.774 121.846 21.5965C121.686 21.4192 121.466 21.2705 121.184 21.1504C120.9 21.0303 120.569 20.9215 120.191 20.8273L118.99 20.5241C118.122 20.3037 117.434 19.9692 116.931 19.5199C116.426 19.0709 116.177 18.4761 116.177 17.7294C116.177 17.1173 116.345 16.5794 116.685 16.1188C117.022 15.6586 117.483 15.3009 118.067 15.0463C118.653 14.7889 119.315 14.6629 120.052 14.6629C120.801 14.6629 121.457 14.7889 122.023 15.0463C122.589 15.3009 123.033 15.6554 123.355 16.1074C123.678 16.5596 123.846 17.0771 123.855 17.6635H122.014Z" fill="#D6D6D6"/>
</svg>
