<svg width="60" height="28" viewBox="0 0 60 28" fill="none" xmlns="http://www.w3.org/2000/svg">
<path d="M45.6665 1.5V26.5H58.1665M33.1665 23.375L36.2915 26.5M1.9165 23.375C1.9165 24.2038 2.24574 24.9987 2.8318 25.5847C3.41785 26.1708 4.2127 26.5 5.0415 26.5H11.2915C12.1203 26.5 12.9152 26.1708 13.5012 25.5847C14.0873 24.9987 14.4165 24.2038 14.4165 23.375V17.125C14.4165 16.2962 14.0873 15.5013 13.5012 14.9153C12.9152 14.3292 12.1203 14 11.2915 14H5.0415C4.2127 14 3.41785 13.6708 2.8318 13.0847C2.24574 12.4987 1.9165 11.7038 1.9165 10.875V4.625C1.9165 3.7962 2.24574 3.00134 2.8318 2.41529C3.41785 1.82924 4.2127 1.5 5.0415 1.5H11.2915C12.1203 1.5 12.9152 1.82924 13.5012 2.41529C14.0873 3.00134 14.4165 3.7962 14.4165 4.625M30.0415 1.5C31.6991 1.5 33.2888 2.15848 34.4609 3.33058C35.633 4.50269 36.2915 6.0924 36.2915 7.75V20.25C36.2915 21.9076 35.633 23.4973 34.4609 24.6694C33.2888 25.8415 31.6991 26.5 30.0415 26.5C28.3839 26.5 26.7942 25.8415 25.6221 24.6694C24.45 23.4973 23.7915 21.9076 23.7915 20.25V7.75C23.7915 6.0924 24.45 4.50269 25.6221 3.33058C26.7942 2.15848 28.3839 1.5 30.0415 1.5Z" stroke="#D6D6D6" stroke-width="2" stroke-linecap="round" stroke-linejoin="round"/>
</svg>
